<svg width="63" height="84" viewBox="0 0 63 84" fill="none" xmlns="http://www.w3.org/2000/svg">
<path d="M62.3885 79.162L62.3885 4.162C62.3862 3.40266 62.1767 2.65836 61.7828 2.00919C61.3889 1.36002 60.8254 0.830574 60.1529 0.477852C59.4805 0.12513 58.7245 -0.037529 57.9665 0.00740051C57.2085 0.05233 56.4771 0.303139 55.851 0.732834L1.68438 38.2328C-0.561458 39.787 -0.561458 43.5287 1.68438 45.087L55.851 82.587C56.4758 83.0211 57.2076 83.2756 57.9669 83.323C58.7261 83.3703 59.4839 83.2087 60.1577 82.8557C60.8316 82.5026 61.3959 81.9717 61.7891 81.3205C62.1824 80.6693 62.3897 79.9227 62.3885 79.162Z" fill="#8EDCA9"/>
</svg>
